<svg
  xmlns="http://www.w3.org/2000/svg"
  viewBox="0 0 100 100"
  preserveAspectRatio="xMidYMid meet"
  width="100%"
  height="100%"
>
  <!-- Snake body with an upward bend at the tail, heading right toward
       the food past the wall. -->
  <g class="fg">
    <rect x="2.400" y="69.600" width="9.6" height="9.6" />
    <rect x="2.400" y="60.000" width="9.6" height="9.6" />
    <rect x="12.000" y="60.000" width="9.6" height="9.6" />
    <rect x="21.600" y="60.000" width="9.6" height="9.6" />
    <rect x="31.200" y="60.000" width="9.6" height="9.6" />
    <rect x="40.800" y="60.000" width="9.6" height="9.6" />
  </g>

  <!-- One connected spike-wall group. Cores merge along shared edges,
       inner concave corners are 45-degree chamfered, and spikes line the
       full outer perimeter. Spike size is slightly larger than the engine
       renders so the teeth stay readable at thumbnail preview size. -->
  <g class="wall">
    <path d="M 52.512 23.712 L 57.888 23.712 L 57.888 31.200 L 52.512 31.200 Z M 52.512 31.200 L 57.888 31.200 L 57.888 40.800 L 52.512 40.800 Z M 52.512 40.800 L 57.888 40.800 L 60.000 42.912 L 60.000 48.288 L 52.512 48.288 Z M 60.000 42.912 L 69.600 42.912 L 69.600 48.288 L 60.000 48.288 Z M 69.600 42.912 L 77.088 42.912 L 77.088 48.288 L 69.600 48.288 Z" />
    <path d="M 52.512 23.712 L 53.856 23.712 L 53.184 21.600 Z M 53.856 23.712 L 55.200 23.712 L 54.528 21.600 Z M 55.200 23.712 L 56.544 23.712 L 55.872 21.600 Z M 56.544 23.712 L 57.888 23.712 L 57.216 21.600 Z M 52.512 23.712 L 52.512 24.960 L 50.400 24.336 Z M 52.512 24.960 L 52.512 26.208 L 50.400 25.584 Z M 52.512 26.208 L 52.512 27.456 L 50.400 26.832 Z M 52.512 27.456 L 52.512 28.704 L 50.400 28.080 Z M 52.512 28.704 L 52.512 29.952 L 50.400 29.328 Z M 52.512 29.952 L 52.512 31.200 L 50.400 30.576 Z M 57.888 23.712 L 57.888 24.960 L 60.000 24.336 Z M 57.888 24.960 L 57.888 26.208 L 60.000 25.584 Z M 57.888 26.208 L 57.888 27.456 L 60.000 26.832 Z M 57.888 27.456 L 57.888 28.704 L 60.000 28.080 Z M 57.888 28.704 L 57.888 29.952 L 60.000 29.328 Z M 57.888 29.952 L 57.888 31.200 L 60.000 30.576 Z M 52.512 31.200 L 52.512 32.571 L 50.400 31.886 Z M 52.512 32.571 L 52.512 33.943 L 50.400 33.257 Z M 52.512 33.943 L 52.512 35.314 L 50.400 34.629 Z M 52.512 35.314 L 52.512 36.686 L 50.400 36.000 Z M 52.512 36.686 L 52.512 38.057 L 50.400 37.371 Z M 52.512 38.057 L 52.512 39.429 L 50.400 38.743 Z M 52.512 39.429 L 52.512 40.800 L 50.400 40.114 Z M 57.888 31.200 L 57.888 32.571 L 60.000 31.886 Z M 57.888 32.571 L 57.888 33.943 L 60.000 33.257 Z M 57.888 33.943 L 57.888 35.314 L 60.000 34.629 Z M 57.888 35.314 L 57.888 36.686 L 60.000 36.000 Z M 57.888 36.686 L 57.888 38.057 L 60.000 37.371 Z M 57.888 38.057 L 57.888 39.429 L 60.000 38.743 Z M 57.888 39.429 L 57.888 40.800 L 60.000 40.114 Z M 52.512 48.288 L 53.760 48.288 L 53.136 50.400 Z M 53.760 48.288 L 55.008 48.288 L 54.384 50.400 Z M 55.008 48.288 L 56.256 48.288 L 55.632 50.400 Z M 56.256 48.288 L 57.504 48.288 L 56.880 50.400 Z M 57.504 48.288 L 58.752 48.288 L 58.128 50.400 Z M 58.752 48.288 L 60.000 48.288 L 59.376 50.400 Z M 52.512 40.800 L 52.512 42.048 L 50.400 41.424 Z M 52.512 42.048 L 52.512 43.296 L 50.400 42.672 Z M 52.512 43.296 L 52.512 44.544 L 50.400 43.920 Z M 52.512 44.544 L 52.512 45.792 L 50.400 45.168 Z M 52.512 45.792 L 52.512 47.040 L 50.400 46.416 Z M 52.512 47.040 L 52.512 48.288 L 50.400 47.664 Z M 60.000 42.912 L 61.371 42.912 L 60.686 40.800 Z M 61.371 42.912 L 62.743 42.912 L 62.057 40.800 Z M 62.743 42.912 L 64.114 42.912 L 63.429 40.800 Z M 64.114 42.912 L 65.486 42.912 L 64.800 40.800 Z M 65.486 42.912 L 66.857 42.912 L 66.171 40.800 Z M 66.857 42.912 L 68.229 42.912 L 67.543 40.800 Z M 68.229 42.912 L 69.600 42.912 L 68.914 40.800 Z M 60.000 48.288 L 61.371 48.288 L 60.686 50.400 Z M 61.371 48.288 L 62.743 48.288 L 62.057 50.400 Z M 62.743 48.288 L 64.114 48.288 L 63.429 50.400 Z M 64.114 48.288 L 65.486 48.288 L 64.800 50.400 Z M 65.486 48.288 L 66.857 48.288 L 66.171 50.400 Z M 66.857 48.288 L 68.229 48.288 L 67.543 50.400 Z M 68.229 48.288 L 69.600 48.288 L 68.914 50.400 Z M 69.600 42.912 L 70.848 42.912 L 70.224 40.800 Z M 70.848 42.912 L 72.096 42.912 L 71.472 40.800 Z M 72.096 42.912 L 73.344 42.912 L 72.720 40.800 Z M 73.344 42.912 L 74.592 42.912 L 73.968 40.800 Z M 74.592 42.912 L 75.840 42.912 L 75.216 40.800 Z M 75.840 42.912 L 77.088 42.912 L 76.464 40.800 Z M 69.600 48.288 L 70.848 48.288 L 70.224 50.400 Z M 70.848 48.288 L 72.096 48.288 L 71.472 50.400 Z M 72.096 48.288 L 73.344 48.288 L 72.720 50.400 Z M 73.344 48.288 L 74.592 48.288 L 73.968 50.400 Z M 74.592 48.288 L 75.840 48.288 L 75.216 50.400 Z M 75.840 48.288 L 77.088 48.288 L 76.464 50.400 Z M 77.088 42.912 L 77.088 44.256 L 79.200 43.584 Z M 77.088 44.256 L 77.088 45.600 L 79.200 44.928 Z M 77.088 45.600 L 77.088 46.944 L 79.200 46.272 Z M 77.088 46.944 L 77.088 48.288 L 79.200 47.616 Z" />
  </g>

  <!-- Food pellet on the same row as the snake's head. -->
  <rect class="food" x="79.200" y="60.000" width="9.6" height="9.6" />
</svg>
